<?xml version="1.0" standalone="no"?>
<!DOCTYPE svg PUBLIC "-//W3C//DTD SVG 20010904//EN"
 "http://www.w3.org/TR/2001/REC-SVG-20010904/DTD/svg10.dtd">
<svg version="1.0" xmlns="http://www.w3.org/2000/svg"
 width="1280.000000pt" height="1096.000000pt" viewBox="0 0 1280.000000 1096.000000"
 preserveAspectRatio="xMidYMid meet">
<metadata>
Created by potrace 1.15, written by Peter Selinger 2001-2017
</metadata>
<g transform="translate(0.000000,1096.000000) scale(0.100000,-0.100000)"
fill="#000000" stroke="none">
<path d="M5983 10922 c-51 -47 -64 -84 -73 -210 -5 -65 -10 -120 -10 -124 0
-22 -23 -2 -54 46 -19 30 -44 60 -55 65 -24 13 -118 15 -125 2 -11 -17 54
-126 115 -196 82 -93 119 -172 126 -270 5 -61 3 -75 -8 -75 -25 0 -56 28 -64
57 -3 15 -24 65 -46 111 -39 81 -41 83 -72 80 -27 -2 -33 -8 -37 -33 -7 -42
-31 -42 -85 -1 -48 37 -99 56 -152 56 -31 0 -32 -1 -22 -27 11 -31 67 -93 83
-93 6 0 17 -4 25 -9 23 -14 -9 -54 -62 -79 -44 -21 -77 -54 -77 -78 0 -31 113
-43 226 -23 112 19 119 8 23 -39 -74 -36 -92 -49 -123 -94 -20 -29 -36 -56
-36 -59 0 -12 87 -39 104 -33 18 7 102 -21 127 -42 8 -8 28 -14 42 -14 25 0
27 3 27 45 l0 45 44 0 c34 0 46 -4 49 -17 16 -58 17 -118 6 -290 -14 -222 -10
-216 -105 -155 -95 62 -148 129 -225 290 -64 132 -71 142 -97 142 -15 0 -36
-6 -47 -14 -50 -34 -62 -31 -131 34 -59 55 -70 61 -102 58 -32 -3 -37 -7 -40
-30 -4 -30 15 -70 60 -132 20 -27 25 -42 16 -43 -7 0 -46 -7 -85 -13 -94 -15
-95 -29 -9 -118 61 -64 86 -99 86 -120 0 -6 -22 -13 -50 -17 -86 -12 -122 -60
-84 -113 9 -14 26 -22 44 -22 32 0 78 -35 99 -74 17 -32 28 -32 92 -4 58 24
72 17 82 -39 7 -35 15 -32 -111 -53 -96 -17 -112 -25 -111 -57 0 -35 47 -74
98 -82 34 -6 36 -8 39 -49 2 -23 0 -42 -5 -42 -4 0 -38 6 -75 14 -37 8 -77 12
-88 9 -25 -7 -34 -40 -26 -97 l7 -43 -66 -11 c-93 -15 -179 -59 -255 -130 -56
-52 -63 -63 -54 -79 17 -28 81 -60 168 -83 l79 -22 50 26 c27 14 53 23 57 21
4 -2 15 -34 25 -70 9 -36 21 -65 26 -65 34 0 94 40 155 105 39 41 76 75 83 75
14 0 33 -47 27 -69 -2 -9 -7 -26 -11 -38 -6 -21 -3 -23 39 -23 73 0 122 25
154 79 21 36 27 42 30 26 2 -11 8 -35 13 -52 10 -30 14 -33 50 -33 21 0 39 -4
39 -8 0 -19 -59 -35 -147 -42 -52 -3 -98 -12 -107 -19 -15 -12 -14 -18 9 -57
14 -23 25 -47 25 -52 0 -6 -23 -18 -51 -27 -99 -33 -198 -4 -305 89 -33 29
-57 42 -74 41 -22 -1 -25 -7 -28 -42 l-3 -41 -62 19 c-34 10 -63 19 -64 19 -1
0 -5 -20 -9 -45 -3 -26 -12 -45 -19 -45 -7 0 -16 -16 -19 -35 l-7 -34 -126 44
c-69 25 -134 45 -143 45 -10 0 -28 -12 -40 -27 -19 -24 -33 -29 -128 -43
l-107 -15 -3 -47 -3 -46 51 -11 c28 -6 73 -11 100 -11 28 0 50 -2 50 -5 0 -4
-7 -20 -16 -37 -15 -29 -15 -32 0 -44 9 -6 35 -14 58 -18 57 -9 59 -12 41 -51
-25 -52 -10 -62 70 -47 96 18 102 17 85 -10 -8 -13 -18 -38 -21 -57 l-7 -33
47 7 c54 8 75 18 152 69 29 20 59 36 67 36 21 0 34 -34 34 -94 l0 -56 55 0
c51 0 59 3 101 42 37 34 47 39 55 27 5 -8 9 -19 9 -25 0 -7 12 -15 28 -19 23
-6 32 -1 63 35 28 33 45 43 77 47 49 7 52 -3 22 -53 -36 -57 -202 -153 -339
-194 -54 -17 -88 -21 -130 -17 -67 6 -103 23 -183 84 -31 24 -81 55 -110 68
l-53 25 -7 -71 c-3 -39 -10 -75 -16 -81 -6 -6 -45 11 -108 46 l-99 56 -3 -45
-3 -45 -64 0 c-35 0 -88 -5 -116 -11 l-53 -11 46 -44 c31 -29 63 -48 102 -59
64 -19 80 -39 70 -90 l-6 -35 55 0 c42 0 69 7 111 29 59 31 62 31 46 1 -6 -11
-7 -50 -3 -95 l6 -77 46 4 c25 3 53 8 62 12 14 6 18 -1 24 -39 4 -32 16 -58
38 -81 43 -47 88 -53 172 -25 52 18 67 20 84 10 26 -17 86 1 136 41 20 16 41
27 46 25 4 -3 11 -22 15 -42 7 -35 7 -35 50 -29 24 3 75 21 114 41 78 39 80
40 80 23 0 -6 7 -20 17 -30 9 -10 14 -19 12 -21 -61 -36 -350 -171 -394 -183
-118 -34 -274 -19 -408 41 -31 13 -58 21 -60 17 -3 -4 -8 -26 -12 -49 -5 -32
-2 -50 15 -83 l22 -43 -45 6 c-24 4 -98 24 -165 47 -66 22 -129 40 -140 40
-24 0 -33 -21 -25 -60 5 -29 4 -30 -28 -30 -50 0 -162 -26 -215 -49 l-46 -21
22 -31 c12 -17 60 -55 106 -84 91 -59 117 -90 112 -131 -3 -29 8 -39 55 -49
27 -5 27 -5 12 -41 -37 -90 -13 -105 162 -102 l130 3 28 -33 c15 -17 34 -32
43 -32 10 0 46 14 80 30 35 17 66 30 68 30 2 0 4 -14 4 -32 l0 -31 123 6 c67
4 139 10 160 13 45 8 48 -5 12 -58 -51 -76 -188 -125 -375 -135 -118 -6 -141
0 -245 66 -60 39 -126 66 -145 59 -6 -2 -2 -20 10 -43 11 -21 20 -40 20 -42 0
-2 -49 12 -109 32 -23 7 -24 6 -17 -26 3 -18 18 -45 31 -59 14 -14 25 -29 25
-33 0 -12 -67 -8 -147 9 -87 18 -95 16 -209 -53 -39 -24 -76 -43 -82 -43 -6 0
-16 -10 -23 -21 -14 -27 5 -99 26 -99 8 0 36 -20 63 -43 31 -28 66 -48 95 -55
49 -13 87 -50 87 -86 0 -12 6 -30 13 -40 12 -17 20 -17 128 -3 63 8 116 13
118 11 2 -2 -14 -23 -37 -48 -44 -48 -76 -102 -64 -109 25 -16 208 -67 237
-67 20 0 60 9 90 19 l55 20 15 -29 c8 -16 24 -35 36 -43 20 -14 18 -16 -33
-26 -115 -23 -252 -34 -453 -35 -199 -1 -213 0 -273 23 -34 13 -65 21 -68 18
-9 -8 22 -71 45 -91 26 -23 27 -43 4 -48 -15 -3 -12 -10 16 -37 29 -27 41 -32
73 -29 21 2 38 1 38 -2 0 -3 -14 -25 -31 -50 -38 -57 -36 -84 10 -88 18 -2 55
4 82 12 60 20 79 20 79 1 0 -35 -33 -77 -73 -96 -71 -32 -140 -25 -387 41 -80
21 -167 42 -194 45 -58 8 -58 7 9 -90 26 -38 44 -75 42 -84 -3 -9 -11 -30 -18
-47 -11 -27 -9 -37 13 -86 39 -84 62 -101 125 -94 l52 6 -14 -39 -13 -39 70
-16 c92 -21 96 -21 173 10 68 27 70 27 208 8 26 -4 47 -10 47 -15 0 -14 -64
-57 -122 -83 -81 -36 -193 -56 -311 -56 -95 0 -149 9 -273 45 -24 7 -44 -27
-44 -75 l0 -28 -107 29 c-60 16 -137 32 -172 35 l-64 7 6 -47 c4 -26 10 -52
13 -58 3 -5 36 -29 73 -52 36 -24 84 -58 105 -75 22 -17 56 -34 78 -37 21 -4
38 -10 38 -13 0 -4 -23 -25 -52 -46 l-52 -40 108 -14 c76 -10 104 -16 92 -23
-14 -8 -56 -77 -56 -93 0 -13 66 -3 127 21 50 18 80 24 113 21 50 -6 179 -48
180 -59 0 -16 -78 -58 -135 -73 -33 -8 -133 -20 -223 -25 -198 -13 -212 -17
-212 -65 l0 -35 -135 0 -136 0 16 30 c10 20 37 41 78 61 34 17 78 44 98 60 20
16 42 29 48 29 6 0 11 10 11 23 0 21 -7 24 -77 34 -48 7 -97 8 -128 3 -27 -5
-70 -9 -94 -9 l-44 -1 19 21 c10 12 58 48 106 80 86 58 129 103 143 147 5 19
3 22 -22 22 -15 0 -131 21 -256 47 -219 45 -227 47 -200 61 15 8 50 39 78 68
43 45 60 55 125 75 99 29 141 50 226 115 72 55 106 104 61 88 -12 -4 -43 -8
-70 -8 -41 -1 -52 4 -77 31 l-30 32 -51 -35 c-75 -50 -78 -49 -54 31 14 46 14
51 -2 63 -11 9 -32 11 -55 8 -21 -3 -57 -9 -80 -13 -23 -3 -39 -2 -35 3 3 5
48 31 101 58 112 58 157 99 159 147 l2 34 -65 8 c-88 12 -200 14 -227 4 -21
-8 -23 -5 -23 22 0 40 -25 41 -94 6 -86 -43 -171 -29 -256 44 l-35 30 65 -5
c36 -4 82 -15 103 -25 50 -25 107 -25 141 2 29 23 34 39 11 39 -20 0 -19 16 1
24 21 8 37 -2 30 -20 -4 -10 4 -14 32 -14 42 0 82 23 82 47 0 13 9 14 53 9
l54 -7 9 43 c9 43 10 43 59 49 75 9 82 14 112 80 2 4 -30 14 -69 23 -54 12
-81 24 -105 47 l-31 31 -49 -32 c-76 -52 -169 -79 -157 -45 10 26 -84 19 -151
-10 -62 -28 -185 -43 -249 -31 -32 6 -36 10 -36 36 0 33 6 36 34 15 40 -31
119 -14 171 35 22 21 44 30 85 35 30 4 86 14 123 22 67 15 68 16 62 41 -11 45
-24 54 -67 47 -43 -8 -46 -3 -18 42 18 30 30 37 85 45 14 3 19 10 17 23 -6 35
-4 99 3 134 l8 34 -39 -7 c-22 -4 -76 -26 -122 -48 -45 -22 -89 -37 -97 -34
-26 10 -28 34 -6 69 27 45 26 80 -4 146 l-26 54 35 29 c25 21 37 41 44 75 6
26 9 50 6 52 -2 2 -28 -2 -58 -9 -45 -11 -63 -11 -100 0 -25 7 -46 14 -46 17
0 2 16 35 37 73 20 39 34 73 31 76 -9 8 -80 -30 -102 -55 -16 -18 -42 -28 -47
-18 -1 1 -4 56 -8 121 l-6 119 -32 -27 c-25 -21 -33 -36 -33 -61 0 -62 -29
-102 -56 -76 -11 12 -91 31 -98 24 -9 -9 31 -76 79 -133 41 -49 75 -126 75
-168 0 -25 -40 17 -64 68 l-21 45 -70 7 c-39 4 -89 11 -112 16 -24 5 -43 7
-43 3 0 -3 14 -26 30 -50 33 -49 36 -61 17 -61 -20 0 -44 -22 -52 -47 -6 -22
-4 -23 62 -23 l68 0 -27 -25 c-15 -14 -31 -38 -34 -53 -9 -36 -20 -42 -75 -42
-33 0 -54 7 -79 25 -46 34 -80 34 -80 -1 0 -14 9 -38 21 -52 l21 -27 -41 -3
c-39 -3 -41 -5 -41 -35 0 -19 9 -41 24 -56 13 -15 27 -36 31 -48 6 -21 3 -23
-27 -23 -25 0 -36 -6 -43 -22 -10 -21 -5 -27 54 -65 57 -37 70 -42 103 -37 34
6 38 4 38 -15 0 -18 -6 -21 -47 -21 -27 -1 -58 -6 -71 -13 l-23 -13 27 -27
c15 -15 30 -27 33 -27 3 0 12 -10 20 -23 7 -12 11 -19 7 -16 -15 14 -85 -12
-122 -46 -21 -20 -61 -46 -89 -59 -49 -22 -125 -80 -125 -95 0 -5 23 -20 51
-36 46 -25 58 -27 114 -22 l62 6 10 -34 11 -33 -47 -13 c-25 -7 -72 -26 -104
-42 -53 -27 -64 -29 -121 -23 -59 6 -198 -14 -234 -33 -13 -7 191 -156 240
-175 22 -8 26 -14 21 -34 -5 -23 -4 -24 28 -17 19 4 53 18 76 31 52 30 53 30
53 -4 0 -45 29 -56 114 -42 39 7 90 20 114 30 51 23 53 12 8 -34 -54 -53 -208
-97 -289 -82 -19 4 -65 26 -103 51 -57 37 -70 41 -72 27 -4 -22 -23 -72 -28
-72 -2 0 -19 8 -39 17 -31 15 -40 15 -72 4 -20 -8 -60 -16 -87 -20 -41 -5 -51
-10 -51 -25 0 -13 12 -23 40 -33 21 -7 48 -22 60 -32 52 -48 292 -221 306
-221 9 0 38 7 65 15 27 9 92 18 144 20 52 2 110 8 128 14 30 9 32 8 32 -13 0
-20 -15 -28 -112 -66 -144 -54 -228 -63 -312 -31 -84 31 -94 29 -98 -21 -3
-41 -4 -43 -33 -40 -16 1 -51 10 -76 19 -43 15 -51 15 -95 0 -27 -9 -75 -28
-107 -42 l-59 -27 86 -88 c59 -60 86 -95 86 -111 0 -13 4 -30 8 -36 13 -21
364 -57 455 -48 57 6 58 5 55 -16 -3 -21 -16 -26 -128 -51 -154 -34 -181 -35
-228 -3 -20 13 -56 31 -80 39 -43 15 -44 15 -67 -12 -14 -15 -25 -40 -25 -55
0 -24 -3 -27 -21 -22 -55 18 -177 -5 -238 -44 -39 -25 34 -121 92 -121 39 0
62 -21 72 -67 6 -32 8 -33 61 -33 53 0 53 0 44 -26 -6 -14 -10 -29 -10 -33 0
-7 76 -23 185 -37 28 -4 58 -12 68 -19 17 -12 17 -13 -5 -18 -93 -23 -234 -30
-346 -17 -64 7 -119 12 -122 11 -3 -1 -3 -10 -2 -19 4 -17 9 -27 46 -93 17
-31 17 -33 1 -45 -16 -12 -16 -13 6 -18 13 -3 47 -7 74 -8 l50 -3 -35 -23
c-31 -21 -43 -23 -110 -17 -41 3 -109 14 -150 25 -41 11 -89 20 -107 20 l-32
0 25 -73 c29 -86 74 -155 122 -188 28 -19 47 -24 94 -23 32 0 64 6 70 12 21
21 118 8 118 -16 0 -4 -55 -21 -123 -38 -106 -26 -127 -29 -153 -18 -17 7 -58
16 -91 19 l-61 7 -7 -32 c-6 -27 -10 -31 -28 -26 -85 25 -134 36 -154 36 -20
0 -23 -4 -17 -27 11 -46 22 -60 68 -87 25 -14 51 -35 59 -46 7 -11 34 -42 60
-70 l46 -50 108 0 107 0 -21 -21 c-17 -18 -40 -23 -125 -31 -56 -5 -146 -21
-198 -35 -81 -22 -110 -25 -195 -21 -147 7 -168 -2 -92 -39 23 -11 57 -24 75
-27 l32 -8 -46 -53 c-44 -52 -45 -54 -24 -65 11 -6 61 -20 111 -31 104 -22
142 -37 211 -80 73 -44 144 -59 288 -59 103 0 141 4 218 26 92 25 158 29 156
9 -2 -20 -104 -65 -239 -105 -149 -44 -202 -49 -332 -36 l-83 9 0 -31 c0 -17
-4 -33 -8 -36 -5 -3 -67 1 -138 9 -71 8 -134 15 -141 15 -7 0 -15 -16 -19 -35
-4 -25 -11 -35 -25 -35 -11 0 -29 -10 -41 -22 -20 -20 -20 -22 -3 -35 11 -7
43 -13 72 -13 29 0 53 -2 53 -5 0 -4 -7 -19 -15 -35 l-16 -30 58 0 c82 0 273
-27 289 -41 11 -9 11 -15 0 -38 -7 -14 -16 -38 -20 -53 l-6 -27 52 24 c85 40
113 42 156 11 41 -28 80 -33 115 -14 12 6 36 14 54 19 31 7 33 5 33 -22 0 -16
5 -29 10 -29 6 0 10 -4 10 -9 0 -16 -127 -71 -164 -71 -21 0 -62 -12 -92 -26
-59 -28 -68 -28 -154 4 -53 20 -181 42 -240 42 -25 0 -28 -3 -26 -32 0 -20 -4
-32 -10 -31 -68 13 -147 23 -151 19 -2 -2 2 -17 11 -33 17 -35 53 -53 104 -53
53 0 67 -12 42 -35 -15 -13 -34 -18 -75 -16 -53 1 -55 0 -55 -24 0 -22 4 -25
38 -25 l37 -1 -27 -20 c-41 -31 -36 -49 13 -49 45 0 51 -5 179 -147 109 -122
88 -143 -143 -143 l-128 0 20 -29 c32 -45 96 -71 173 -71 65 0 66 0 77 -31 6
-18 11 -43 11 -56 0 -22 3 -24 33 -18 17 4 36 11 42 16 12 12 82 11 90 -1 11
-17 50 -11 99 15 26 14 49 25 52 25 2 0 4 -13 4 -30 0 -40 23 -50 117 -50 66
0 88 5 141 30 61 29 124 38 148 22 7 -4 21 -23 32 -42 11 -19 26 -33 33 -31 8
2 77 3 154 3 l140 -1 150 63 c83 36 151 63 152 62 1 -1 -8 -47 -20 -103 l-22
-100 -110 -7 c-60 -3 -180 -6 -265 -6 -85 0 -245 -7 -355 -15 -110 -8 -314
-15 -453 -16 -139 0 -254 -5 -258 -10 -3 -5 1 -9 8 -9 11 0 11 -2 0 -9 -24
-15 236 -31 813 -51 314 -10 681 -25 817 -31 135 -7 253 -9 261 -6 9 3 143 0
299 -8 156 -7 432 -19 613 -25 182 -6 431 -15 555 -20 124 -5 326 -12 450 -15
124 -3 324 -10 445 -16 121 -5 355 -14 520 -19 165 -6 381 -14 480 -19 274
-14 473 -19 445 -11 -38 12 -15 12 280 -5 146 -8 398 -19 560 -25 162 -6 412
-15 555 -20 143 -5 352 -12 465 -15 113 -3 304 -10 425 -16 121 -5 360 -14
530 -19 171 -5 400 -14 510 -19 323 -16 481 -19 460 -11 -19 8 -19 9 3 9 13 1
87 -3 165 -9 177 -12 770 -37 1057 -45 118 -3 258 -7 310 -10 52 -3 275 -7
495 -10 220 -3 412 -8 428 -11 16 -3 27 -1 27 5 0 6 -19 11 -43 11 -24 0 -47
4 -52 9 -6 6 -41 12 -80 14 -58 2 -51 4 40 6 61 2 101 5 90 8 -18 3 -303 20
-442 26 -80 3 -75 17 8 19 l74 1 -95 7 c-52 4 -149 9 -215 10 -77 2 -106 5
-80 9 33 5 23 8 -54 14 -52 4 -124 8 -160 9 l-66 1 55 6 55 7 -65 7 c-36 4
-87 9 -115 10 -44 3 -41 4 20 7 l70 3 -95 8 c-185 14 -251 22 -240 29 13 8
-141 19 -290 21 -63 1 -93 4 -75 8 17 4 -48 10 -153 14 -101 5 -194 12 -207
17 -13 5 -102 12 -199 16 -97 4 -186 12 -198 18 -47 24 -103 216 -115 390 l-5
91 63 29 c35 16 67 31 72 34 4 2 7 -16 7 -40 0 -24 5 -60 10 -80 10 -35 12
-36 43 -27 17 5 33 9 34 9 2 0 3 -9 3 -19 0 -11 18 -33 43 -51 36 -27 48 -31
87 -27 57 7 91 -15 149 -94 l42 -58 65 25 c77 29 74 28 74 6 0 -34 143 -143
162 -124 7 7 31 2 76 -14 36 -14 71 -23 77 -20 7 2 25 31 40 63 15 32 29 60
30 61 2 2 28 -14 57 -37 58 -43 115 -71 148 -71 18 0 20 6 20 55 0 30 3 55 6
55 3 0 26 -16 51 -35 53 -40 78 -49 148 -49 49 -1 50 -1 53 32 l3 33 30 -26
c37 -30 79 -32 140 -6 24 10 52 21 61 24 16 6 16 9 -4 44 -12 21 -28 46 -36
56 -14 15 -13 17 11 17 15 0 67 -13 117 -30 98 -33 150 -38 150 -17 0 16 -48
84 -79 111 -34 31 -25 34 44 18 58 -14 71 -14 108 -2 53 19 54 39 1 66 l-41
21 20 39 c11 21 21 41 23 43 2 2 26 -6 53 -18 65 -27 85 -27 106 5 14 22 22
25 51 21 19 -3 48 -12 64 -21 16 -8 44 -17 61 -21 30 -7 30 -7 24 28 -7 34 -6
34 35 40 57 7 65 17 49 61 -7 19 -11 38 -8 40 3 3 29 -1 59 -9 78 -21 190 -31
190 -17 0 41 -119 122 -202 137 -21 4 -38 12 -38 18 0 6 3 8 6 4 9 -9 75 27
103 57 l24 25 -27 11 c-15 5 -67 10 -116 10 l-89 0 2 38 2 37 -72 -3 c-68 -4
-72 -3 -75 20 -5 34 -59 35 -170 2 -96 -28 -124 -28 -335 -8 -58 6 -62 8 -57
28 3 12 8 43 12 69 l7 49 65 -50 c80 -60 121 -82 156 -82 29 0 29 -2 8 115
l-7 40 38 -34 c39 -34 96 -63 146 -75 22 -5 28 -1 43 30 9 20 19 56 23 81 5
35 9 43 22 37 53 -22 92 -33 136 -35 l50 -3 -3 35 c-2 24 -15 46 -44 76 -46
47 -40 51 36 28 74 -22 192 -35 231 -24 18 5 44 18 57 28 l23 19 -20 22 c-30
34 -78 51 -173 60 -46 5 -87 12 -90 15 -13 12 38 47 77 52 48 7 51 16 14 40
-24 16 -58 18 -298 20 -148 1 -319 6 -380 10 l-110 9 49 23 c45 21 54 22 100
12 52 -12 62 -9 68 24 4 20 5 21 78 9 28 -5 49 1 98 26 34 18 85 38 114 44 28
7 53 17 55 23 2 6 -20 34 -49 62 l-53 51 91 -2 c80 -3 95 0 114 17 21 19 45
64 37 71 -1 2 -63 10 -137 19 -202 23 -250 41 -250 91 0 30 20 74 34 74 6 0
35 -9 64 -20 63 -24 95 -25 153 -5 70 25 119 62 119 89 0 29 15 41 58 51 48
10 38 62 -24 126 l-35 36 90 5 c104 6 167 31 194 77 17 29 17 30 -1 40 -48 25
-105 24 -241 -5 -25 -5 -25 -1 -5 65 l7 24 -99 -6 c-54 -3 -120 -9 -146 -13
l-48 -7 0 38 0 38 -67 -6 c-38 -4 -124 -19 -193 -33 -147 -31 -196 -29 -372
15 -128 32 -199 65 -249 117 -38 39 -28 42 51 14 30 -11 74 -19 97 -20 l41 0
-5 40 -6 39 94 46 c85 42 99 46 145 41 34 -4 75 0 123 13 43 11 88 17 111 14
45 -6 48 -1 20 44 l-20 33 30 15 c16 8 44 15 62 16 49 1 83 13 86 29 1 8 -11
30 -28 48 -16 18 -30 35 -30 38 0 2 12 4 28 4 39 0 122 42 160 80 57 59 48 61
-131 25 -138 -27 -357 -51 -382 -41 -13 5 -15 13 -10 38 l7 31 -46 -6 c-25 -4
-68 -18 -94 -31 -26 -13 -64 -27 -83 -31 -86 -16 -459 59 -649 131 -10 4 14
21 65 47 77 40 84 41 193 45 110 4 112 5 112 28 l0 24 67 -25 c36 -14 67 -24
68 -23 13 17 25 53 25 77 0 17 5 31 10 31 6 0 36 -13 67 -30 79 -43 103 -38
137 27 18 35 29 35 77 1 21 -16 32 -17 68 -9 23 5 45 12 48 15 3 3 -5 21 -17
41 -12 20 -20 38 -18 40 2 3 20 -6 38 -20 41 -30 54 -31 123 -5 29 11 93 29
141 39 48 11 91 22 94 26 4 4 -21 32 -56 64 -34 31 -62 59 -62 62 0 4 27 9 61
11 53 4 64 9 97 41 23 23 33 40 27 46 -26 26 -924 111 -1167 111 -76 0 -78 1
-78 24 0 23 3 24 86 27 79 4 87 6 110 32 13 15 24 37 24 47 0 20 0 20 -135 41
-73 11 -277 59 -356 85 -25 8 -57 26 -69 39 l-23 25 32 0 c17 0 46 6 65 14
l32 13 24 -43 c14 -27 30 -44 41 -44 21 0 49 26 49 46 0 20 10 17 53 -16 l38
-28 37 21 c26 15 37 18 40 9 9 -29 55 -71 89 -83 29 -9 45 -8 94 6 51 16 59
22 59 42 0 21 3 23 23 17 12 -3 29 -12 37 -19 8 -7 30 -15 48 -18 31 -6 32 -6
32 30 l0 36 83 -7 c45 -4 95 -8 112 -9 23 -2 33 4 50 30 17 27 26 32 58 33 41
0 45 10 22 50 -8 14 -14 28 -15 32 0 4 33 17 73 28 126 37 147 49 161 96 6 21
3 22 -108 26 -129 5 -160 17 -174 71 -7 29 -12 32 -48 35 -21 1 -79 9 -127 17
-48 9 -135 22 -191 30 -73 10 -134 26 -207 56 -57 23 -118 46 -136 51 l-32 9
31 64 c34 73 32 95 -9 95 -15 0 -46 5 -68 11 -34 10 -37 13 -20 20 11 4 37 8
57 8 31 1 52 -11 130 -70 92 -70 94 -71 144 -66 64 6 177 81 202 134 10 21 21
32 30 28 7 -3 37 -8 65 -11 l52 -5 27 45 c17 28 48 59 85 83 56 37 73 51 73
64 0 4 -41 8 -90 11 -87 4 -91 5 -126 39 l-35 34 -62 -34 c-51 -28 -75 -35
-141 -39 -99 -6 -176 10 -207 45 l-24 26 58 -7 c67 -7 90 2 112 44 13 25 19
29 35 20 10 -5 36 -10 58 -10 34 0 41 4 61 40 12 22 35 48 49 58 15 9 71 57
125 107 l97 89 -32 18 c-28 16 -48 17 -139 12 l-106 -6 -9 44 c-9 41 -11 43
-42 40 -18 -1 -61 -15 -95 -30 -55 -24 -74 -27 -162 -26 -81 0 -123 7 -220 33
-66 18 -122 35 -124 37 -9 9 44 54 63 54 14 0 66 46 147 129 l127 130 43 -37
c32 -28 44 -33 47 -22 19 56 137 117 245 127 l57 6 14 46 c13 46 13 46 92 74
88 31 100 39 110 81 l7 29 -54 -7 c-30 -3 -91 -9 -136 -13 l-83 -6 0 47 0 46
-42 -6 c-57 -9 -75 -16 -133 -53 -27 -17 -61 -31 -76 -31 -26 0 -27 2 -22 43
7 51 16 64 60 82 48 20 41 48 -12 56 -22 3 -61 12 -86 19 -42 12 -53 12 -110
-9 -91 -31 -94 -31 -97 7 -5 49 10 59 87 64 65 3 73 7 130 51 33 26 83 57 111
69 44 18 53 27 75 75 27 60 26 90 -6 119 -19 17 -25 17 -171 -2 l-47 -6 -3 33
-3 34 -48 -3 c-27 -2 -78 -12 -115 -23 -92 -26 -92 -26 -92 27 l0 47 -52 -6
c-35 -4 -84 -23 -142 -53 -73 -38 -96 -45 -127 -41 -83 11 -352 151 -409 212
-22 25 -23 27 -5 22 11 -4 98 -25 193 -48 162 -38 174 -43 199 -74 l27 -33 32
24 c32 25 33 25 88 10 31 -8 58 -11 61 -7 2 5 7 27 11 50 8 51 24 59 71 37 19
-9 54 -19 78 -23 42 -5 43 -5 50 28 4 19 13 41 20 49 7 8 16 29 19 46 l7 32
52 -28 c68 -36 107 -44 131 -27 24 17 16 53 -20 96 l-26 31 84 0 c152 0 273
50 266 110 -3 25 -5 25 -143 40 l-140 15 -3 30 c-5 62 -12 75 -36 75 -39 0
-98 -25 -173 -74 -79 -51 -108 -64 -170 -75 -47 -9 -50 -6 -28 35 32 63 -39
67 -155 8 -116 -57 -201 -78 -325 -78 -102 0 -255 19 -255 31 0 21 25 83 33
83 6 0 35 -12 66 -27 31 -14 77 -28 104 -31 l47 -5 0 46 0 45 42 -15 c26 -9
56 -12 80 -8 33 6 38 10 38 33 0 19 -9 32 -30 44 -32 18 -40 38 -15 38 9 0 33
-9 55 -20 50 -26 58 -25 115 6 49 28 96 33 171 19 39 -7 43 -6 69 29 l28 37
-23 24 c-25 27 -76 45 -127 45 l-33 0 30 49 c40 65 52 73 124 91 42 11 62 21
64 33 6 30 -24 64 -62 71 -20 4 -36 11 -36 16 0 5 18 21 39 36 43 28 50 39 61
97 7 37 7 37 -25 37 -57 0 -147 -34 -253 -97 l-103 -61 -54 32 c-30 17 -54 36
-55 43 0 6 18 24 40 40 43 31 49 40 60 96 7 33 5 37 -14 37 -11 0 -50 -9 -84
-20 -96 -30 -102 -29 -102 26 0 40 2 45 18 39 35 -14 119 -17 140 -6 16 9 22
21 22 47 0 30 -4 37 -31 46 -29 10 -31 13 -25 46 4 25 21 51 55 86 55 56 71
89 71 143 l0 36 -42 -7 c-23 -4 -72 -20 -109 -36 -37 -17 -70 -30 -73 -30 -3
0 -6 16 -6 35 0 29 -5 37 -27 46 -14 5 -32 8 -39 5 -20 -8 -49 -71 -79 -171
-15 -49 -29 -97 -32 -105 -3 -12 -9 -10 -25 10 -16 20 -19 35 -16 85 6 85 44
162 118 235 79 78 108 146 81 189 -11 17 -47 -6 -134 -86 -32 -29 -62 -53 -68
-53 -5 0 -9 23 -9 52 0 94 -23 328 -32 328 -16 0 -63 -27 -79 -46 -12 -14 -18
-49 -23 -133 -3 -63 -10 -119 -15 -124 -6 -6 -30 9 -66 41 -84 77 -176 97
-160 35 9 -36 62 -114 134 -198 34 -38 70 -88 80 -110 24 -50 38 -165 21 -165
-21 0 -69 40 -76 63 -8 25 -62 108 -98 151 l-24 29 -37 -31 c-19 -18 -40 -32
-44 -32 -5 0 -39 14 -75 31 -36 17 -84 33 -106 36 -58 8 -53 -19 15 -82 30
-28 55 -53 55 -57 0 -4 -24 -20 -53 -37 -29 -16 -63 -41 -75 -54 l-23 -25 32
-11 c41 -14 144 -14 226 0 35 6 67 8 70 5 11 -10 -28 -34 -95 -58 -62 -22
-112 -63 -112 -93 0 -7 -2 -20 -5 -28 -5 -11 9 -15 65 -20 54 -4 85 -14 125
-36 47 -27 58 -29 80 -19 19 9 25 19 25 45 0 38 11 41 65 18 51 -21 57 -47 40
-162 -8 -54 -14 -131 -13 -171 2 -99 -11 -114 -77 -82 -26 13 -85 59 -131 104
-69 67 -94 100 -143 191 -59 109 -59 110 -93 107 -18 -2 -38 -8 -43 -12 -6 -5
-23 -14 -38 -19 -26 -10 -32 -7 -83 41 -43 40 -64 53 -99 58 l-45 7 0 -43 c0
-29 6 -49 19 -61 20 -20 41 -56 41 -72 0 -6 -17 -11 -37 -11 -51 0 -113 -18
-113 -33 0 -26 52 -87 100 -118 36 -24 50 -39 50 -56 0 -20 -5 -23 -40 -23
-55 0 -98 -24 -106 -58 -3 -15 -7 -33 -10 -39 -2 -8 5 -13 18 -13 11 0 47 -12
78 -26 42 -19 62 -34 70 -55 14 -33 26 -35 77 -14 62 26 84 18 96 -35 6 -26 6
-26 -86 -38 -51 -7 -102 -12 -115 -12 -21 0 -23 -4 -20 -36 3 -33 7 -37 60
-58 69 -28 171 -129 136 -134 -11 -2 -48 11 -83 29 -60 31 -67 32 -122 23
l-58 -9 3 -52 c1 -28 -1 -54 -6 -57 -5 -3 -36 -9 -69 -15 -104 -16 -141 -31
-187 -70 -25 -22 -61 -44 -81 -51 -30 -10 -35 -16 -35 -43 0 -32 1 -33 98 -65
111 -37 168 -40 230 -12 l43 19 9 -25 c6 -14 10 -31 10 -38 0 -20 34 -46 59
-46 39 0 96 37 145 94 67 79 90 74 91 -19 0 -48 1 -50 30 -53 49 -6 102 16
132 53 16 19 31 35 35 35 3 0 25 -16 48 -35 49 -41 53 -42 87 -15 30 24 38 20
30 -12 -6 -23 -13 -24 -131 -34 -120 -11 -176 -28 -176 -54 0 -5 13 -25 30
-43 l30 -34 -57 -12 c-71 -14 -143 -14 -180 0 -15 5 -57 28 -93 49 -36 22 -84
42 -107 46 -40 6 -42 5 -45 -22 -3 -32 -16 -34 -90 -22 -37 7 -37 6 -63 -47
-14 -30 -25 -61 -25 -69 0 -12 -14 -9 -69 14 -74 32 -179 60 -221 59 -17 0
-31 -10 -45 -32 -20 -32 -21 -32 -117 -37 -112 -6 -127 -14 -108 -60 17 -41
37 -50 109 -50 47 0 61 -3 61 -14 0 -31 44 -67 88 -73 52 -7 57 -14 32 -46
-11 -14 -20 -32 -20 -41 0 -17 11 -17 127 4 47 8 46 9 26 -64 -5 -17 0 -18 58
-14 51 3 73 10 109 34 25 17 59 36 77 42 29 10 32 9 43 -18 7 -16 9 -38 5 -49
-3 -12 -3 -30 0 -41 5 -17 12 -19 48 -14 23 4 69 15 102 25 48 15 66 16 90 7
26 -9 38 -7 73 11 23 12 42 26 42 31 0 6 18 10 40 10 24 0 40 -5 40 -12 0 -29
-55 -79 -123 -113 -89 -44 -291 -97 -373 -98 -63 -1 -84 8 -292 126 l-53 29 7
-26 c8 -34 -22 -106 -46 -106 -9 0 -53 18 -99 40 -45 22 -87 40 -93 40 -5 0
-8 -18 -7 -41 l3 -41 -104 0 c-58 0 -108 -2 -112 -5 -5 -2 1 -18 13 -35 24
-33 82 -62 144 -72 40 -7 40 -7 37 -48 -5 -49 5 -58 71 -58 34 0 61 8 90 24
l42 25 2 -85 c1 -47 3 -87 5 -89 3 -3 39 3 114 20 19 4 22 -1 28 -44 9 -70 41
-101 103 -101 26 1 75 7 108 15 33 8 80 15 105 15 25 1 63 8 85 16 73 28 74
28 84 1 14 -35 37 -40 89 -17 71 32 125 41 161 29 35 -12 40 -27 14 -35 -10
-4 -77 -33 -150 -65 -170 -77 -196 -85 -291 -99 -96 -14 -228 5 -332 49 l-68
28 -16 -34 c-21 -44 -20 -59 6 -96 l22 -30 -70 6 c-38 3 -102 17 -142 31 -40
14 -94 26 -120 28 -42 3 -47 1 -44 -17 2 -11 5 -24 5 -29 1 -6 -19 -13 -44
-17 -26 -4 -56 -12 -67 -18 -11 -6 -57 -20 -103 -31 -45 -10 -84 -21 -86 -24
-10 -10 50 -56 126 -95 89 -46 116 -71 107 -99 -8 -23 43 -72 75 -72 23 0 24
-9 5 -35 -7 -11 -16 -30 -20 -42 -6 -20 -2 -22 63 -33 52 -9 88 -9 140 -1 38
6 86 11 105 11 34 0 36 -2 36 -33 0 -26 6 -36 23 -44 20 -9 31 -6 71 20 26 16
61 31 77 32 27 2 29 -1 29 -33 l0 -34 83 7 c45 4 116 13 157 21 41 8 76 14 78
14 11 0 -3 -34 -24 -60 -99 -117 -454 -157 -613 -69 -90 50 -104 57 -135 65
-26 6 -28 5 -22 -12 4 -10 10 -31 13 -46 l5 -27 -61 20 c-34 12 -64 19 -67 16
-10 -9 25 -64 53 -86 36 -26 21 -27 -99 -4 -68 13 -96 15 -118 6 -26 -10 -31
-8 -61 23 -20 20 -29 37 -23 42 5 5 36 16 69 26 78 24 154 63 162 83 13 32
-32 53 -116 53 -111 1 -153 22 -176 89 l-17 51 -71 0 c-91 0 -243 23 -327 49
-124 39 -290 115 -290 132 0 10 10 43 22 74 21 56 21 58 3 71 -11 8 -43 14
-77 14 -32 0 -58 4 -58 8 0 12 56 42 80 42 38 0 88 -30 160 -97 67 -62 72 -64
108 -58 43 7 102 39 102 55 0 5 18 21 41 36 27 16 47 40 58 65 12 28 20 37 31
32 8 -4 40 -9 71 -11 l56 -4 13 46 c13 48 51 85 114 111 22 10 37 25 44 45
l11 30 -93 0 c-92 0 -92 0 -125 34 l-34 35 -60 -32 c-57 -30 -67 -32 -166 -32
-91 0 -113 3 -153 23 -27 13 -48 28 -48 33 0 5 33 9 73 9 73 0 73 0 88 33 14
31 16 32 82 35 l68 3 18 42 c10 23 30 48 45 56 14 8 45 38 67 68 23 29 59 68
80 88 48 43 53 80 12 96 -20 8 -50 8 -109 0 -116 -16 -114 -17 -114 25 0 47
-16 74 -43 74 -12 0 -58 -18 -102 -41 -77 -39 -83 -40 -160 -37 -57 3 -116 15
-207 43 -142 44 -146 50 -67 103 21 15 89 89 150 166 l111 138 26 -25 c29 -28
76 -49 86 -40 3 4 6 15 6 26 0 11 9 21 21 24 12 4 60 25 108 48 47 23 103 45
124 49 31 6 37 11 37 32 0 14 -5 34 -10 44 -9 17 -6 20 27 25 89 15 117 31
168 99 l30 39 -85 -6 c-47 -4 -116 -10 -154 -13 -66 -7 -69 -6 -62 12 5 10 10
37 14 58 l5 39 -43 -6 c-24 -3 -55 -15 -69 -26 -46 -38 -96 -69 -118 -76 -20
-5 -23 -3 -23 22 0 40 19 103 31 103 11 0 39 60 39 83 0 9 -15 17 -42 20 -24
3 -62 9 -85 13 -28 4 -59 1 -92 -10 -63 -20 -107 -21 -115 0 -16 42 55 93 106
75 57 -20 68 -15 68 29 0 35 3 40 28 46 15 4 41 14 57 23 17 9 55 23 85 32 30
9 54 20 54 25 -1 5 -4 26 -8 46 -6 33 -4 37 16 40 30 4 47 60 27 84 -27 33
-70 43 -144 34 -114 -15 -115 -15 -115 23 0 43 -35 66 -70 47 -22 -12 -151
-50 -169 -50 -5 0 -7 19 -4 43 6 66 -3 72 -73 46 -32 -12 -90 -42 -129 -66
-104 -65 -122 -61 -331 64 -163 98 -227 149 -255 205 -32 62 -17 66 31 9 25
-29 57 -59 72 -67 16 -8 82 -26 148 -39 126 -26 173 -44 190 -73 5 -9 16 -25
24 -36 15 -18 16 -18 47 8 31 26 36 27 106 21 l73 -7 -6 33 c-4 19 -13 41 -20
50 -8 8 -14 19 -14 24 0 16 92 -4 130 -29 22 -14 42 -26 44 -26 10 0 75 114
81 141 4 16 10 29 13 29 4 0 29 -11 56 -25 55 -28 121 -33 129 -11 7 19 -7 69
-27 98 -9 12 -16 25 -16 29 0 3 38 9 85 12 49 4 103 14 128 25 47 21 100 76
95 100 -4 21 -81 41 -185 49 l-83 6 6 38 c17 105 -20 113 -156 34 -115 -68
-249 -135 -268 -135 -10 0 -8 7 7 26 12 15 21 40 21 55 0 25 -4 29 -27 29 -55
-1 -119 -21 -168 -55 -118 -80 -179 -90 -424 -71 l-113 9 5 46 c4 33 12 52 32
69 l28 23 14 -29 c17 -36 51 -52 121 -59 l52 -6 0 48 c0 37 3 46 14 42 40 -15
89 -18 116 -7 17 7 30 16 30 20 0 4 -13 27 -30 51 -16 24 -30 47 -30 50 0 10
53 -2 70 -16 31 -25 51 -24 111 6 52 27 67 30 103 24 68 -12 92 -9 125 15 64
45 11 111 -102 126 -26 4 -50 11 -53 15 -6 11 78 122 109 144 12 8 33 15 48
15 40 0 64 32 53 72 -9 31 -13 33 -59 38 l-50 5 47 39 c52 44 68 77 68 143 l0
45 -32 -7 c-42 -9 -82 -30 -192 -99 -49 -31 -106 -61 -127 -67 -35 -11 -40
-10 -78 21 -23 19 -41 37 -41 41 0 4 18 29 41 55 54 62 64 90 44 120 -21 32
-51 30 -120 -6 -31 -16 -59 -30 -61 -30 -2 0 -4 25 -4 55 0 55 0 55 28 49 15
-3 39 -9 53 -14 21 -6 35 -3 64 17 32 22 36 29 33 61 -3 31 -7 38 -35 46 -29
8 -32 12 -27 35 12 55 17 65 64 116 83 92 94 192 21 188 -20 -1 -53 -15 -78
-33 -25 -17 -58 -33 -73 -37 -28 -5 -29 -4 -32 37 -2 30 -9 47 -24 57 -20 13
-25 11 -56 -19 -30 -29 -36 -43 -47 -113 -13 -77 -54 -185 -71 -185 -4 0 -7
28 -6 63 2 34 3 85 4 113 2 45 9 60 63 135 97 134 132 204 126 246 -4 19 -8
38 -11 40 -9 10 -95 -57 -123 -97 -17 -22 -42 -49 -56 -61 l-27 -20 0 43 c0
76 -24 408 -30 408 -3 0 -20 -13 -37 -28z m200 -969 c-4 -10 -21 -45 -39 -78
-18 -33 -35 -71 -39 -85 -8 -27 -33 -60 -46 -60 -4 0 2 30 13 67 21 70 65 144
96 162 23 14 22 14 15 -6z m73 -405 c-3 -18 -13 -37 -23 -43 -9 -5 -45 -29
-81 -53 -36 -23 -67 -40 -70 -38 -9 9 19 74 41 93 22 21 114 72 131 73 5 0 6
-15 2 -32z m-692 -213 c3 -8 2 -15 -3 -15 -5 0 -14 7 -21 15 -10 12 -10 15 3
15 8 0 17 -7 21 -15z m67 -63 c11 -28 6 -28 -26 3 -31 32 -31 37 -3 26 12 -4
25 -17 29 -29z m217 -101 c4 -51 7 -51 -93 8 l-70 41 80 -2 80 -3 3 -44z
m-475 -228 c4 -2 7 -8 7 -12 0 -13 -59 0 -72 16 -11 14 -8 15 22 8 19 -4 38
-9 43 -12z m338 -23 c21 0 39 -4 39 -10 0 -6 -28 -10 -65 -10 -58 0 -65 2 -65
20 0 17 3 18 26 10 14 -6 43 -10 65 -10z m-141 -24 c0 -12 -23 -66 -29 -66
-11 0 -51 31 -51 39 0 5 15 13 33 19 37 12 47 13 47 8z m261 -149 c-8 -8 -11
-5 -11 9 0 27 14 41 18 19 2 -9 -1 -22 -7 -28z m4131 -4 c-39 -51 -48 -70 -57
-120 -5 -34 -11 -43 -27 -43 -18 0 -19 4 -13 38 12 65 42 120 77 142 48 29 53
25 20 -17z m-4142 -85 c0 -7 -5 -20 -10 -28 -8 -12 -10 -9 -10 13 0 15 5 27
10 27 6 0 10 -6 10 -12z m4233 -251 c-4 -20 -15 -32 -40 -42 -19 -8 -57 -31
-84 -51 l-49 -36 0 32 c0 41 34 71 113 103 34 14 63 24 64 24 1 -1 -1 -15 -4
-30z m-4253 -162 c0 -63 -4 -105 -10 -105 -6 0 -10 42 -10 105 0 63 4 105 10
105 6 0 10 -42 10 -105z m3570 -17 c18 -20 26 -38 16 -38 -19 0 -57 23 -66 40
-9 17 -8 20 9 20 11 0 29 -10 41 -22z m259 -103 c5 -6 12 -25 16 -42 l6 -32
-70 29 c-39 16 -81 36 -93 45 -22 16 -19 16 54 13 43 -2 82 -8 87 -13z m-105
-265 c-5 -5 -31 -13 -57 -16 -39 -6 -47 -4 -47 10 0 13 11 16 57 16 38 0 54
-3 47 -10z m-2987 -40 c78 -47 101 -49 141 -15 32 27 92 55 117 55 14 0 14 -4
0 -36 -8 -19 -24 -49 -36 -65 -21 -30 -22 -30 -88 -24 -87 9 -208 33 -246 50
l-30 13 33 1 c29 1 32 4 32 31 0 17 2 30 6 30 3 0 35 -18 71 -40z m-157 0 c8
-16 8 -20 -3 -20 -8 0 -22 9 -32 20 -18 19 -17 20 3 20 12 0 26 -9 32 -20z
m2970 0 c0 -16 -7 -20 -30 -20 -49 0 -37 37 13 39 11 1 17 -6 17 -19z m230
-560 c0 -47 -4 -80 -10 -80 -6 0 -10 33 -10 80 0 47 4 80 10 80 6 0 10 -33 10
-80z m1020 -369 l-12 -49 -84 -7 c-136 -12 -277 8 -324 46 l-25 20 30 -3 c17
-1 58 1 93 6 55 7 66 6 84 -10 14 -14 35 -19 72 -19 43 0 63 7 112 37 32 20
61 35 63 33 2 -2 -2 -26 -9 -54z m-8290 -837 c-14 -68 -31 -60 -38 19 -4 48
-2 54 19 64 31 13 35 -5 19 -83z m-285 -175 c11 -11 62 -12 67 -1 2 5 18 12
37 15 l34 7 -7 -57 c-3 -32 -9 -88 -13 -125 -3 -41 -10 -68 -17 -68 -22 0
-103 57 -125 88 -26 37 -71 132 -71 151 0 10 10 12 43 7 23 -4 46 -11 52 -17z
m425 11 c-36 -11 -52 -11 -45 0 3 6 21 10 38 9 31 -1 31 -1 7 -9z m-155 -50
c0 -13 -6 -25 -12 -27 -9 -3 -13 6 -13 27 0 21 4 30 13 28 6 -3 12 -15 12 -28z
m55 -170 c-9 -17 -50 -30 -50 -16 0 11 33 36 46 36 12 0 12 -4 4 -20z m-216
-168 c3 -5 -8 -9 -25 -10 -16 0 -27 4 -24 9 8 11 42 12 49 1z m4669 -212 c14
-41 22 -50 41 -50 18 0 25 7 30 32 l6 32 28 -25 c58 -53 56 -53 92 -2 l33 46
23 -49 c34 -76 41 -81 122 -89 l73 -6 34 37 35 38 22 -21 c26 -23 61 -43 77
-43 6 0 11 20 11 45 l0 46 67 -3 68 -3 7 -44 c10 -58 24 -73 60 -66 27 6 28 5
28 -28 0 -38 -1 -38 118 -53 62 -8 82 -29 82 -88 l0 -39 93 7 c50 3 108 9 127
13 l35 6 -26 -34 c-14 -19 -45 -44 -69 -56 -57 -30 -100 -30 -482 2 -316 26
-517 51 -531 64 -5 5 24 16 65 26 117 28 148 52 148 116 0 17 -7 19 -67 19
-49 0 -92 9 -167 34 -56 19 -130 42 -166 52 -36 9 -78 24 -95 32 -31 15 -95
71 -95 82 0 4 23 3 51 -1 40 -6 57 -5 73 6 11 8 23 15 26 15 3 0 13 -22 23
-50z m-4938 -160 c4 -16 13 -30 20 -30 13 0 27 -76 17 -94 -8 -15 -135 5 -164
26 -37 26 -35 41 7 61 19 9 35 21 35 27 0 10 48 39 67 40 6 0 14 -13 18 -30z
m151 -29 c-6 -9 -76 -1 -76 9 0 4 10 15 23 23 20 15 23 14 39 -5 10 -11 16
-23 14 -27z m94 -131 c0 -33 -4 -60 -10 -60 -6 0 -10 27 -10 60 0 33 4 60 10
60 6 0 10 -27 10 -60z m6319 -192 c11 -23 19 -43 18 -44 -5 -5 -212 -24 -255
-24 l-47 1 28 24 c15 13 46 29 70 35 23 6 65 19 92 29 70 26 70 26 94 -21z
m-5710 -45 c-23 -31 -42 -43 -67 -43 -29 0 -21 15 22 41 41 25 64 26 45 2z
m-165 1 c25 -10 19 -19 -15 -21 -26 -2 -29 0 -19 12 14 17 13 17 34 9z m5561
-34 c4 -6 -7 -10 -25 -10 -18 0 -29 4 -25 10 3 6 15 10 25 10 10 0 22 -4 25
-10z m-165 -250 c0 -21 -73 -89 -107 -101 -22 -7 -58 -9 -92 -5 -130 14 -161
19 -161 23 0 15 43 83 53 83 6 0 27 -9 45 -20 39 -24 66 -25 123 -4 24 9 64
19 89 24 25 4 46 8 48 9 1 0 2 -3 2 -9z m-674 -104 c15 -11 21 -34 29 -113
l10 -98 33 -3 c28 -3 32 -7 32 -32 0 -25 4 -29 40 -35 22 -4 40 -11 40 -16 0
-5 -12 -7 -27 -4 -152 24 -244 42 -333 67 -106 29 -260 94 -260 110 0 4 23 8
51 8 33 0 63 7 83 19 24 15 57 20 141 24 l110 5 8 41 c9 45 14 48 43 27z
m-4436 -566 c0 -5 -13 -10 -30 -10 -16 0 -30 5 -30 10 0 6 14 10 30 10 17 0
30 -4 30 -10z m4717 -310 c14 -11 41 -20 59 -20 41 0 42 -8 6 -35 -42 -30
-148 -33 -205 -6 -25 12 -52 30 -62 40 -16 19 -15 20 27 29 77 17 147 14 175
-8z m-4830 -160 c1 -16 -4 -20 -30 -20 -21 0 -36 7 -45 20 -11 19 -10 20 31
20 36 0 43 -3 44 -20z m164 -26 c57 -17 128 -16 260 5 76 12 116 4 159 -32 16
-14 47 -28 70 -32 22 -4 40 -11 40 -16 0 -19 73 -88 103 -98 18 -6 86 -10 152
-9 66 0 176 -2 245 -6 148 -9 262 4 359 40 135 51 147 54 206 42 l55 -11 -18
-30 c-23 -41 -116 -99 -216 -136 -185 -67 -500 -141 -599 -141 -65 0 -84 8
-132 56 -14 14 -39 31 -56 38 l-31 13 52 43 c28 23 49 44 47 46 -6 7 -492 63
-600 69 l-107 7 50 41 50 41 -82 17 c-101 20 -169 50 -141 60 30 12 77 10 134
-7z m533 -447 c15 -11 17 -17 7 -35 -9 -18 -21 -22 -56 -22 -48 0 -56 11 -35
51 12 22 57 26 84 6z m-125 -11 c-2 -2 -21 -6 -42 -10 -27 -5 -37 -4 -32 3 3
6 22 11 42 11 20 0 34 -2 32 -4z m4871 -73 c27 -16 50 -31 50 -34 0 -7 -137
-49 -159 -49 -11 0 -12 10 -7 46 3 25 8 50 12 55 10 17 54 9 104 -18z m-5224
-9 c19 -9 34 -20 34 -24 0 -10 -113 -30 -166 -30 -37 1 -38 1 -19 16 22 17 95
53 108 54 5 0 24 -7 43 -16z m4766 -60 c8 -24 18 -34 33 -34 40 0 64 12 67 33
2 12 17 29 35 40 30 17 34 17 57 2 13 -9 29 -29 34 -45 10 -27 9 -28 -30 -34
-52 -8 -269 -25 -326 -26 -41 0 -42 1 -36 28 9 37 21 48 79 70 57 21 68 17 87
-34z m-232 -28 c0 -1 -13 -3 -30 -3 -30 0 -40 12 -17 20 11 4 47 -9 47 -17z
m-3971 -246 c19 -5 42 -17 52 -26 18 -16 18 -18 -2 -55 -42 -83 -164 -124
-300 -101 -74 13 -183 58 -174 72 3 4 20 11 39 14 25 5 41 16 56 41 19 31 43
44 105 58 39 9 190 7 224 -3z m8035 -44 c46 -38 47 -40 26 -48 -25 -9 -171 0
-191 13 -10 6 -10 13 -1 34 6 14 17 27 24 29 7 2 27 8 43 13 35 11 36 11 99
-41z m180 40 c18 -7 43 -28 55 -45 l22 -31 -102 0 -103 0 44 45 c24 25 46 45
47 45 2 0 19 -6 37 -14z m-431 -56 c7 -25 -4 -25 -34 0 l-24 19 26 1 c18 0 28
-6 32 -20z m-7553 -52 c0 -13 4 -29 9 -37 12 -18 66 -16 114 4 l37 15 0 -55 0
-55 -80 0 -80 0 0 31 0 32 -65 -5 c-57 -5 -63 -4 -56 11 18 32 82 80 109 81 6
0 12 -10 12 -22z m430 -51 c0 -17 -4 -47 -9 -65 -8 -28 -7 -32 9 -32 10 0 43
23 73 50 59 54 77 61 77 31 0 -14 8 -21 28 -23 25 -3 23 -5 -33 -41 -121 -77
-415 -208 -542 -241 -48 -13 -53 -13 -53 3 0 24 29 62 42 55 8 -5 9 11 4 53
l-7 60 46 6 c51 7 104 33 188 89 54 37 152 88 170 88 4 0 7 -15 7 -33z m-621
-336 c9 -6 4 -10 -18 -13 -30 -4 -39 1 -24 15 9 9 25 8 42 -2z m-2365 -336
c-6 -15 -42 -31 -50 -22 -8 7 26 37 41 37 9 0 12 -6 9 -15z m10295 -140 c16
-8 31 -21 34 -30 5 -12 -1 -15 -28 -15 -24 0 -35 5 -35 14 0 8 -3 21 -6 30 -8
20 -1 20 35 1z m-5324 -478 l7 -49 34 6 c25 5 34 3 34 -7 0 -28 71 -96 111
-107 47 -13 59 -7 59 26 0 38 17 28 40 -23 32 -72 77 -138 104 -152 21 -12 33
-10 85 7 l62 21 6 -31 c4 -20 19 -39 44 -57 21 -14 43 -36 50 -48 14 -26 18
-27 56 -11 36 14 61 11 92 -13 29 -23 54 -24 72 -3 43 52 133 56 195 9 30 -23
39 -26 60 -16 18 8 24 19 24 42 0 26 3 30 18 24 53 -21 217 -57 284 -62 61 -5
85 -2 113 11 20 10 38 16 39 14 1 -1 7 -15 13 -29 6 -14 21 -29 32 -32 17 -4
24 1 35 26 22 54 37 60 87 37 60 -27 66 -26 88 18 25 49 41 62 85 69 32 5 36
3 36 -16 0 -12 8 -25 17 -28 14 -6 82 14 143 41 12 5 15 -1 12 -37 -4 -49 21
-122 39 -112 6 4 85 13 177 19 l166 12 26 -29 26 -29 42 21 c24 12 85 27 141
35 55 8 109 20 121 26 73 39 201 129 236 167 66 69 73 60 54 -72 -6 -38 -20
-104 -32 -147 l-21 -77 -166 5 c-108 3 -159 1 -146 -5 19 -9 -526 -19 -667
-12 -37 2 -58 -1 -58 -8 0 -13 -374 -13 -600 -2 -132 7 -133 8 -45 10 103 4
78 17 -40 21 -65 3 -67 3 -25 9 l45 6 -55 8 c-30 4 -89 7 -130 8 -59 1 -68 3
-40 9 28 6 20 8 -40 9 -49 2 -68 5 -55 10 12 5 -64 12 -185 17 -121 5 -191 11
-170 15 27 5 19 7 -36 8 -150 2 -317 15 -299 21 11 4 -70 10 -180 14 -110 4
-210 11 -223 17 -13 5 -33 9 -46 9 -15 0 -27 9 -35 27 -25 55 -52 192 -58 295
l-6 107 64 29 64 28 7 -25 c3 -14 9 -48 13 -74z m-3822 -66 c16 -24 42 -46 68
-57 83 -37 255 -127 304 -160 67 -46 128 -47 173 -5 l31 30 35 -33 c26 -25 41
-32 60 -29 21 4 26 11 26 35 l0 29 45 -32 c44 -32 47 -33 91 -21 68 18 142 13
129 -9 -3 -4 4 -13 15 -19 16 -9 33 -3 97 33 133 75 118 73 143 23 30 -63 44
-72 77 -51 14 10 45 34 67 54 47 42 92 75 119 84 17 6 18 3 12 -35 -4 -24 -12
-52 -19 -62 -11 -17 -8 -26 17 -62 26 -38 34 -42 59 -37 16 3 46 14 66 25 l37
19 3 -36 c3 -33 6 -35 37 -35 28 0 36 4 41 25 10 42 27 48 88 34 67 -15 78 -8
97 56 13 45 14 45 60 45 39 0 47 -4 57 -25 15 -32 24 -31 101 10 36 19 66 34
67 32 2 -1 -1 -19 -5 -40 -5 -20 -5 -54 0 -75 14 -61 13 -62 -43 -64 l-53 -1
45 -7 c32 -5 4 -8 -95 -10 -92 -2 -126 -5 -100 -10 22 -4 -41 -6 -140 -4 -131
1 -160 0 -105 -6 52 -5 2 -7 -162 -6 -130 0 -234 -2 -231 -6 6 -11 -55 -10
-282 2 -104 6 -209 15 -232 21 -23 6 -102 15 -175 20 -125 9 -191 14 -511 37
-70 5 -129 11 -130 13 -2 2 -16 38 -32 79 -24 60 -31 94 -33 170 l-4 95 30 2
c25 2 34 -5 55 -36z m9398 -11 l24 -19 -47 -1 c-41 0 -48 3 -48 20 0 27 40 27
71 0z m-6195 -77 c7 -28 -10 -163 -27 -213 l-11 -30 -156 6 c-113 4 -153 3
-142 -5 11 -8 -4 -11 -60 -10 l-75 1 105 24 c103 24 106 25 160 79 77 78 184
175 192 175 4 0 11 -12 14 -27z m-2191 -63 c4 -6 -7 -10 -25 -10 -18 0 -29 4
-25 10 3 6 15 10 25 10 10 0 22 -4 25 -10z m1483 -197 c-16 -2 -40 -2 -55 0
-16 2 -3 4 27 4 30 0 43 -2 28 -4z m-185 -10 c-7 -2 -21 -2 -30 0 -10 3 -4 5
12 5 17 0 24 -2 18 -5z m5 -20 c-15 -2 -42 -2 -60 0 -18 2 -6 4 27 4 33 0 48
-2 33 -4z m-1235 -40 c-13 -2 -33 -2 -45 0 -13 2 -3 4 22 4 25 0 35 -2 23 -4z
m3995 -50 c-32 -2 -84 -2 -115 0 -32 2 -6 3 57 3 63 0 89 -1 58 -3z m1005 -60
c-13 -2 -35 -2 -50 0 -16 2 -5 4 22 4 28 0 40 -2 28 -4z m3345 -180 c-10 -2
-28 -2 -40 0 -13 2 -5 4 17 4 22 1 32 -1 23 -4z"/>
</g>
</svg>
